<svg version="1.2" xmlns="http://www.w3.org/2000/svg" viewBox="0 0 900 900" width="900" height="900">
	<title>UnbHub Logo 2</title>
	<style>
		.s0 { fill: #0891b2 } 
		.s1 { opacity: .6;mix-blend-mode: multiply;fill: #0891b2 } 
	</style>
	<g id="Camada 1">
		<g id="&lt;Group&gt;">
			<g id="&lt;Group&gt;">
				<g id="&lt;Group&gt;">
					<path id="&lt;Path&gt;" class="s0" d="m511.9 397l-4.3 5.1-10.9 12.7-4.5 5.3-15.3 17.7-15 17.6-9.8 11.4-0.3 0.3-0.2 0.2-0.3-0.3-9.9-11.6-15.1-17.6-19.8-23-10.8-12.7-4-4.7-0.4-0.4-0.6-0.7-38.1-44.5-0.8-0.9 20.6-24 39.7-46.4 38.9 45.4 0.6 0.7 0.4 0.4 0.2 0.3 3.8 4.4 16 18.7 14.8 17.2 5.1 6.1 9.9 11.5z"/>
					<path id="&lt;Path&gt;" class="s1" d="m492.2 420.1l-15.3 17.7-15 17.6-9.8 11.4-0.3 0.3-0.2 0.2-0.3-0.3-9.9-11.6-15.1-17.6-19.8-23.1-10.8-12.6-4-4.7-0.4-0.4-0.6-0.8-38.1-44.4 20.6-24 19.9-23.3 38.9 45.4 0.2 0.2 0.2 0.3 0.2 0.2 4.4 5.1 15.2 17.8 15.6 18.1 4.4 5.1 10.6 12.5z"/>
					<path id="&lt;Path&gt;" class="s1" d="m471.9 443l-4.3 5.1-10.9 12.7-4.9 5.6-0.2 0.4-0.3 0.2-9.9-11.6-15.1-17.6-19.8-23-10.8-12.7-4-4.7-0.4-0.4-0.6-0.7-38.1-44.5-0.8-0.9 20.6-24 0.8 0.9 37.8 44.1 0.6 0.7 0.7 0.8 0.2 0.3 3.5 4 16.3 19.1 14.5 16.8 5.4 6.4 9.6 11.2z"/>
				</g>
				<path id="&lt;Path&gt;" class="s0" d="m551.8 351.3l-0.5 0.7-38.4 44.7-0.6 0.7-4.4 5.1-10.8 12.7-19.8 23.1-15.1 17.5-9.7 11.4-0.3 0.3-0.2 0.3-10.3-12-15.1-17.5-19.7-23.1-10.9-12.7-4.4-5.1h0.1l10-11.7 10.6-12.3 4.5-5.3 15.4-18 15.4-17.9 4.4-5.1v-0.1l0.6-0.7 38.9-45.3 0.2 0.3 39.7 46.3z"/>
				<g id="&lt;Group&gt;">
					<path id="&lt;Path&gt;" class="s0" d="m552.3 351.3l-0.8 1-38.1 44.4-0.6 0.7-4.4 5.1-10.9 12.7-19.7 23.1-15.1 17.5-10 11.7-0.2 0.3-0.3-0.3-0.4-0.4-0.2-0.3-9.4-11-15.1-17.5-15.2-17.8-4.5-5.3-10.9-12.7-4.4-5.1 10.1-11.7 10.3-12 4.8-5.6 15.1-17.7 15.7-18.2 4.1-4.9 0.3-0.2 0.6-0.8 38.6-45 0.3-0.3 39.7 46.3z"/>
					<path id="&lt;Path&gt;" class="s1" d="m551.5 352.3l-38.1 44.4-0.6 0.7-4.4 5.1-10.9 12.7-19.7 23.1-15.1 17.5-10 11.7-0.2 0.3-0.3-0.3-0.4-0.4-0.2-0.3-9.4-11-15.1-17.5-15.2-17.8 9.3-10.8 11.1-13 4-4.6 15.9-18.6 14.9-17.3 4.4-5.1 0.5-0.7 0.1-0.1 38.9-45.3 19.9 23.2 20.4 23.8z"/>
					<path id="&lt;Path&gt;" class="s1" d="m552.3 351.3l-0.8 1-38.1 44.4-0.6 0.7-4.4 5.1-10.9 12.7-19.7 23.1-15.1 17.5-10 11.7-0.2-0.3-0.4-0.4-0.3-0.4-4.4-5.2-10.9-12.7-4.4-5.1 10.1-11.7 10-11.7 5.1-5.9 14.9-17.4 15.9-18.5 3.8-4.5 0.6-0.6 0.6-0.8 37.8-44.1 0.5-0.6 0.3-0.3z"/>
				</g>
				<path id="&lt;Path&gt;" class="s0" d="m620.1 431v183.9h-137.9v-59.8l17.9-20.9 20.2-23.5 0.6-0.7 14.5-16.9 4.9-5.8 7.2-8.4 2.1-2.4 41.4-48.4 13.3-15.5 0.3 0.3z"/>
				<g id="&lt;Group&gt;">
					<path id="&lt;Path&gt;" class="s0" d="m421.8 555.1v59.8h-137.9v-183.9l15.7-18.4 13.3 15.5 41.4 48.4 1.7 1.9 0.5 0.5 7.1 8.4 5 5.8 14.5 16.9 0.5 0.7 20.2 23.5z"/>
					<path id="&lt;Path&gt;" class="s1" d="m421.8 558.3v56.6h-108.9v-146.9l15.7-18.4 13.3 15.5 12.7 14.9 28.7 33.5 2.2 2.4 7.1 8.4 5 5.8 14.5 16.9 0.5 0.7z"/>
					<path id="&lt;Path&gt;" class="s1" d="m421.8 555.1v59.8h-80.9v-118.9l13.7-16 1.4-1.6 0.5 0.5 7.1 8.4 5 5.8 14.5 16.9 0.5 0.7 20.2 23.5z"/>
				</g>
				<g id="&lt;Group&gt;" style="mix-blend-mode: multiply">
					<path id="&lt;Path&gt;" class="s0" d="m482.7 555.1v0.9h-0.5v-0.3z"/>
				</g>
				<g id="&lt;Group&gt;">
					<g id="&lt;Group&gt;">
						<path id="&lt;Path&gt;" class="s0" d="m620.6 431v183.9h-137.9v-59.8l17.9-20.9 20.2-23.5 0.6-0.7 14.4-16.9 5-5.8 7.2-8.4 0.5-0.5 1.6-1.9 41.4-48.4 13.1-15.2 0.2-0.3z"/>
						<path id="&lt;Path&gt;" class="s0" d="m482.7 555.1v0.9h-0.5v-0.3z"/>
					</g>
					<g id="&lt;Group&gt;" style="opacity: .6">
						<path id="&lt;Path&gt;" class="s1" d="m591.6 468v146.9h-108.9v-56.6l9.1-10.6 0.6-0.7 14.4-16.9 5-5.8 7.2-8.4 2.1-2.4 28.7-33.5 12.7-14.9 13.3-15.5z"/>
					</g>
					<g id="&lt;Group&gt;" style="opacity: .6">
						<path id="&lt;Path&gt;" class="s1" d="m563.6 496v118.9h-80.9v-58.9h-0.5v-0.3l0.5-0.6 17.9-20.9 20.2-23.5 0.6-0.7 14.4-16.9 5-5.8 7.2-8.4 0.5-0.5 1.3 1.6z"/>
					</g>
				</g>
			</g>
		</g>
	</g>
</svg>